<svg width="253" height="163" viewBox="0 0 253 163" fill="none" xmlns="http://www.w3.org/2000/svg">
<path d="M0 0H50V16H0V0Z" fill="white"/>
<path d="M35 6.33672L49.6917 3.33786e-06L105.93 130.389L91.2383 136.726L35 6.33672Z" fill="white"/>
<path d="M229.359 28.6137L244.089 34.8604L200.73 137.104L186 130.857L229.359 28.6137Z" fill="white"/>
<path d="M92 121H201V137H92V121Z" fill="white"/>
<path d="M229 29H253V45H229V29Z" fill="white"/>
<path d="M126 153C126 158.523 121.523 163 116 163C110.477 163 106 158.523 106 153C106 147.477 110.477 143 116 143C121.523 143 126 147.477 126 153Z" fill="white"/>
<path d="M191 153C191 158.523 186.523 163 181 163C175.477 163 171 158.523 171 153C171 147.477 175.477 143 181 143C186.523 143 191 147.477 191 153Z" fill="white"/>
</svg>
